Coordinates
version=1
nRows=41
nColumns=38
inDegrees=no

Units are S.I. units (second, meters, Newtons, ...)
If the header above contains a line with 'inDegrees', this indicates whether rotational values are in degrees (yes) or radians (no).

endheader
time	pelvis_tilt	pelvis_list	pelvis_rotation	pelvis_tx	pelvis_ty	pelvis_tz	hip_flexion_r	hip_adduction_r	hip_rotation_r	knee_angle_r	ankle_angle_r	subtalar_angle_r	mtp_angle_r	hip_flexion_l	hip_adduction_l	hip_rotation_l	knee_angle_l	ankle_angle_l	subtalar_angle_l	mtp_angle_l	lumbar_extension	lumbar_bending	lumbar_rotation	arm_flex_r	arm_add_r	arm_rot_r	elbow_flex_r	pro_sup_r	wrist_flex_r	wrist_dev_r	arm_flex_l	arm_add_l	arm_rot_l	elbow_flex_l	pro_sup_l	wrist_flex_l	wrist_dev_l
154.92	-2.21981	1.26534	0.951055	0.829997	0.283323	1.00166	0.346806	0.172589	-0.224507	0.254306	-0.123907	0	0	0.489306	-0.361323	-0.119386	1.24547	-0.117739	0	0	0.100237	0.360549	0.184553	-0.07851	-0.214475	-0.281723	1.54063	1.5708	0	0	-0.226696	-0.0611455	1.46147	0.144975	0.352634	0	0
154.93	-2.23765	1.26336	0.965949	0.831787	0.274485	1.00409	0.337455	0.170304	-0.236209	0.244302	-0.142762	0	0	0.507317	-0.348671	-0.112038	1.22643	-0.121944	0	0	0.103053	0.370328	0.165502	-0.0838037	-0.218365	-0.27215	1.55012	1.5708	0	0	-0.253708	-0.0113339	1.09392	0.0792985	0.468511	0	0
154.94	-2.21576	1.27566	0.942976	0.832856	0.26527	1.0063	0.318055	0.171024	-0.301572	0.261894	-0.139974	0	0	0.505224	-0.345874	-0.114723	1.20809	-0.121429	0	0	0.0885737	0.367965	0.162669	-0.0985588	-0.218661	-0.278958	1.55933	1.5708	0	0	-0.252017	-0.0111786	1.06239	0.0869141	0.497785	0	0
154.95	-2.20733	1.28483	0.933799	0.833932	0.256709	1.00793	0.297269	0.168879	-0.324838	0.260154	-0.140553	0	0	0.510346	-0.336928	-0.110561	1.18856	-0.120582	0	0	0.078995	0.36381	0.158868	-0.113027	-0.218831	-0.285743	1.56884	1.5708	0	0	-0.248747	-0.0108516	1.03357	0.0945471	0.51304	0	0
154.96	-2.21049	1.29084	0.935462	0.834762	0.248302	1.00919	0.282055	0.166019	-0.342832	0.259332	-0.141483	0	0	0.51937	-0.327405	-0.107694	1.16585	-0.120394	0	0	0.0748059	0.358091	0.15555	-0.127202	-0.218187	-0.292407	1.57675	1.5708	0	0	-0.245997	-0.0108544	1.01596	0.0992467	0.521594	0	0
154.97	-2.20593	1.29804	0.924524	0.835256	0.23973	1.0103	0.264402	0.165189	-0.354462	0.259072	-0.141852	0	0	0.524755	-0.321666	-0.108537	1.14314	-0.119708	0	0	0.0658053	0.354123	0.157667	-0.140177	-0.218277	-0.298564	1.58642	1.5708	0	0	-0.243028	-0.0112997	1.00015	0.105988	0.529903	0	0
154.98	-2.21261	1.30528	0.924087	0.835421	0.231673	1.01144	0.247063	0.162938	-0.351689	0.253391	-0.143222	0	0	0.530664	-0.313336	-0.10962	1.11446	-0.121058	0	0	0.0573685	0.346333	0.160411	-0.152646	-0.217296	-0.304318	1.59421	1.5708	0	0	-0.239273	-0.012611	0.986729	0.111082	0.53875	0	0
154.99	-2.22015	1.30827	0.929979	0.836614	0.223235	1.01186	0.233545	0.160538	-0.361266	0.24885	-0.144111	0	0	0.542597	-0.303274	-0.102104	1.08534	-0.122303	0	0	0.0578921	0.342159	0.156011	-0.169562	-0.217404	-0.310178	1.60331	1.5708	0	0	-0.237982	-0.0126638	0.973893	0.114856	0.546329	0	0
155	-2.22082	1.31316	0.925334	0.837437	0.214934	1.0126	0.219481	0.159029	-0.371306	0.249351	-0.144365	0	0	0.549153	-0.296979	-0.101506	1.05246	-0.123679	0	0	0.0524763	0.338845	0.155728	-0.184595	-0.217884	-0.315206	1.6128	1.5708	0	0	-0.233973	-0.0124563	0.961355	0.11979	0.552722	0	0
155.01	-2.20226	1.32032	0.903312	0.838513	0.206492	1.0138	0.200717	0.158615	-0.388682	0.250636	-0.145616	0	0	0.548853	-0.293822	-0.10375	1.0146	-0.125843	0	0	0.0415964	0.337934	0.153694	-0.198071	-0.218642	-0.319611	1.62223	1.5708	0	0	-0.228676	-0.0115091	0.951365	0.12364	0.560682	0	0
155.02	-2.22133	1.32331	0.913957	0.838777	0.198368	1.01401	0.191275	0.154948	-0.390443	0.250564	-0.145862	0	0	0.555372	-0.288012	-0.111344	0.973188	-0.128948	0	0	0.0397691	0.330459	0.154041	-0.211047	-0.217209	-0.321945	1.62963	1.5708	0	0	-0.225055	-0.0127725	0.944706	0.127397	0.57173	0	0
155.03	-2.22737	1.32719	0.910135	0.839265	0.189904	1.01412	0.178585	0.153069	-0.39234	0.250654	-0.14602	0	0	0.560798	-0.284352	-0.114408	0.936656	-0.132662	0	0	0.0348424	0.325809	0.155209	-0.224443	-0.217015	-0.323691	1.63882	1.5708	0	0	-0.222221	-0.0130306	0.94031	0.130002	0.585555	0	0
155.04	-2.23657	1.32979	0.910879	0.840021	0.181384	1.01404	0.167695	0.150503	-0.395967	0.250952	-0.145602	0	0	0.566983	-0.279836	-0.11608	0.896681	-0.137323	0	0	0.0325732	0.321466	0.153595	-0.238335	-0.216599	-0.324826	1.64804	1.5708	0	0	-0.219757	-0.0130283	0.935456	0.132426	0.599277	0	0
155.05	-2.25199	1.33098	0.917606	0.840782	0.172873	1.01378	0.157371	0.14828	-0.394728	0.247482	-0.144907	0	0	0.573302	-0.275548	-0.119694	0.852214	-0.143718	0	0	0.0327707	0.316764	0.15093	-0.251998	-0.216158	-0.324595	1.65674	1.5708	0	0	-0.217476	-0.0133099	0.930373	0.135341	0.613185	0	0
155.06	-2.2688	1.3315	0.924688	0.841453	0.164295	1.01335	0.14796	0.14638	-0.393138	0.244616	-0.143816	0	0	0.57894	-0.272677	-0.125758	0.805358	-0.151647	0	0	0.0336399	0.311928	0.148237	-0.264598	-0.215356	-0.323129	1.66523	1.5708	0	0	-0.216028	-0.0138319	0.923047	0.137623	0.625228	0	0
155.07	-2.24274	1.34742	0.891772	0.841558	0.155816	1.01285	0.120911	0.141567	-0.410943	0.247587	-0.13036	0	0	0.566299	-0.271418	-0.137523	0.761176	-0.157205	0	0	0.0154015	0.29111	0.1503	-0.275236	-0.20993	-0.324389	1.66815	1.5708	0	0	-0.202761	-0.0360001	0.860191	0.177654	0.87017	0	0
155.08	-2.23791	1.35157	0.874935	0.842276	0.146887	1.01269	0.109732	0.138747	-0.430518	0.258984	-0.127282	0	0	0.563401	-0.273256	-0.149033	0.710898	-0.164093	0	0	0.00815537	0.288212	0.147635	-0.285568	-0.210162	-0.320228	1.67792	1.5708	0	0	-0.200846	-0.0343919	0.840168	0.178231	0.88271	0	0
155.09	-2.22727	1.35682	0.851341	0.842981	0.138138	1.01276	0.093153	0.136951	-0.431425	0.259115	-0.12728	0	0	0.557139	-0.275635	-0.161445	0.65719	-0.172228	0	0	-0.00212913	0.285355	0.145891	-0.295197	-0.210661	-0.316271	1.68759	1.5708	0	0	-0.196976	-0.0325348	0.828362	0.176311	0.89165	0	0
155.1	-2.2713	1.35666	0.879667	0.84322	0.129722	1.01105	0.0840657	0.13314	-0.389896	0.24548	-0.101421	0	0	0.563038	-0.272994	-0.171168	0.605374	-0.185134	0	0	0.00173306	0.273854	0.143053	-0.305797	-0.209615	-0.309554	1.69488	1.5708	0	0	-0.143996	-0.00483726	1.01691	0.115654	0.898472	0	0
155.11	-2.33413	1.3304	0.929593	0.844382	0.121566	1.00754	0.105944	0.138883	-0.374956	0.245533	-0.098309	0	0	0.601343	-0.286341	-0.0881407	0.522172	-0.211543	0	0	0.0366286	0.283687	0.136844	-0.327222	-0.211728	-0.309028	1.70729	1.5708	0	0	-0.202075	-0.0300261	0.799499	0.17624	0.899328	0	0
155.12	-2.3505	1.32793	0.932875	0.84529	0.112523	1.00659	0.0988923	0.137248	-0.372281	0.243963	-0.096625	0	0	0.602214	-0.290298	-0.0931112	0.46769	-0.230282	0	0	0.0398464	0.283072	0.130544	-0.339396	-0.211941	-0.303821	1.71583	1.5708	0	0	-0.151248	-0.0397306	0.949047	0.117273	1.40382	0	0
155.13	-2.347	1.33156	0.917306	0.846214	0.103534	1.00575	0.0834699	0.13531	-0.373698	0.242543	-0.0942685	0	0	0.59472	-0.295273	-0.0994608	0.413883	-0.250064	0	0	0.033523	0.277084	0.121423	-0.346644	-0.215979	-0.292194	1.72052	1.5708	0	0	-0.2063	-0.0214644	0.630774	0.174646	1.0609	0	0
155.14	-2.35177	1.33284	0.907028	0.847166	0.094385	1.0048	0.071295	0.133018	-0.370182	0.241417	-0.0924462	0	0	0.588945	-0.301556	-0.108627	0.360677	-0.269418	0	0	0.0304718	0.274678	0.115616	-0.356679	-0.220718	-0.283072	1.7281	1.5708	0	0	-0.204568	-0.0212662	0.63422	0.172626	1.04797	0	0
155.15	-2.33227	1.35244	0.866583	0.848224	0.0842965	1.00614	0.0386015	0.121809	-0.367777	0.239426	-0.092003	0	0	0.558875	-0.29209	-0.21998	0.336741	-0.280691	0	0	0.00403381	0.266814	0.116963	-0.363352	-0.22561	-0.273986	1.73623	1.5708	0	0	-0.145377	-0.0390703	0.880739	0.114801	1.45019	0	0
155.16	-2.34199	1.35126	0.859908	0.84942	0.0748648	1.00469	0.0293757	0.118988	-0.36304	0.23905	-0.090296	0	0	0.556754	-0.298134	-0.226936	0.286616	-0.295295	0	0	0.00473825	0.266136	0.111543	-0.376105	-0.232065	-0.265651	1.7454	1.5708	0	0	-0.145027	-0.0392448	0.872134	0.113756	1.46733	0	0
155.17	-2.3676	1.35005	0.870045	0.851083	0.0655886	1.00307	0.0232792	0.112218	-0.358608	0.239975	-0.0871983	0	0	0.565705	-0.296993	-0.245653	0.267032	-0.299095	0	0	0.0077211	0.262664	0.103855	-0.388836	-0.239125	-0.257198	1.75406	1.5708	0	0	-0.14481	-0.0386035	0.860993	0.111538	1.47992	0	0
155.18	-2.36644	1.3481	0.850372	0.851834	0.0558803	1.00114	0.0131698	0.111566	-0.353301	0.240574	-0.082517	0	0	0.553822	-0.311865	-0.234424	0.19716	-0.316191	0	0	0.00647393	0.260361	0.0980673	-0.400815	-0.246651	-0.246816	1.76185	1.5708	0	0	-0.202547	-0.0185122	0.552257	0.169895	1.11253	0	0
155.19	-2.38743	1.34405	0.853432	0.853164	0.0461936	0.99904	0.00911214	0.107083	-0.348066	0.242883	-0.080563	0	0	0.555092	-0.319529	-0.233097	0.157533	-0.319543	0	0	0.0116102	0.259095	0.0930844	-0.416536	-0.254004	-0.239717	1.77129	1.5708	0	0	-0.20406	-0.0184397	0.556656	0.1683	1.09876	0	0
155.2	-2.41005	1.339	0.858983	0.854769	0.036254	0.996776	0.00598591	0.102307	-0.344824	0.245548	-0.0779579	0	0	0.55761	-0.327113	-0.228435	0.122072	-0.323753	0	0	0.0188775	0.258814	0.0868934	-0.434426	-0.261966	-0.233564	1.78123	1.5708	0	0	-0.205912	-0.0188059	0.562832	0.166907	1.08825	0	0
155.21	-2.42823	1.33461	0.860315	0.856497	0.0262032	0.994593	0.00188892	0.097322	-0.342145	0.248537	-0.0760856	0	0	0.559482	-0.335454	-0.22247	0.0928305	-0.327315	0	0	0.0246034	0.259195	0.0816005	-0.455102	-0.268695	-0.231308	1.79225	1.5708	0	0	-0.206351	-0.0191045	0.567923	0.164872	1.08251	0	0
155.22	-2.4424	1.33059	0.856651	0.85815	0.0161085	0.992511	-0.00184845	0.0920934	-0.339101	0.254307	-0.0735218	0	0	0.558914	-0.345082	-0.214509	0.0657366	-0.332321	0	0	0.0284198	0.259803	0.0762569	-0.475364	-0.276162	-0.228102	1.80417	1.5708	0	0	-0.206439	-0.0197616	0.573741	0.163322	1.07696	0	0
155.23	-2.45354	1.32828	0.851165	0.859943	0.0058626	0.990639	-0.00792209	0.0862734	-0.337047	0.258057	-0.0717128	0	0	0.558139	-0.354278	-0.20803	0.0491434	-0.334971	0	0	0.0302385	0.259187	0.0718661	-0.497588	-0.28042	-0.228991	1.81665	1.5708	0	0	-0.205536	-0.0214259	0.578153	0.161551	1.07326	0	0
155.24	-2.46459	1.32698	0.845287	0.861796	-0.00450244	0.988888	-0.0140939	0.0790376	-0.336704	0.263602	-0.0703419	0	0	0.556261	-0.362889	-0.203412	0.0393871	-0.335162	0	0	0.0305925	0.257756	0.068475	-0.52215	-0.28251	-0.23352	1.8304	1.5708	0	0	-0.204201	-0.0238662	0.582821	0.16001	1.07137	0	0
155.25	-2.47237	1.32733	0.836972	0.863872	-0.0150208	0.987345	-0.0214297	0.0705478	-0.337427	0.270642	-0.0696645	0	0	0.5535	-0.370131	-0.201724	0.0386643	-0.332187	0	0	0.0288146	0.255597	0.0660525	-0.549922	-0.282387	-0.242621	1.84555	1.5708	0	0	-0.202025	-0.0271723	0.587963	0.159578	1.07063	0	0
155.26	-2.47617	1.32913	0.825507	0.866185	-0.025719	0.986001	-0.0297545	0.0611132	-0.338365	0.279404	-0.0696846	0	0	0.549839	-0.376365	-0.20206	0.0462826	-0.326484	0	0	0.0249269	0.253081	0.0645328	-0.580381	-0.279825	-0.255132	1.86236	1.5708	0	0	-0.198996	-0.0310123	0.592704	0.159512	1.07034	0	0
155.27	-2.47808	1.33208	0.813022	0.868698	-0.0366046	0.984809	-0.039313	0.0510858	-0.338419	0.287467	-0.0705125	0	0	0.545672	-0.381559	-0.20363	0.0609599	-0.318952	0	0	0.0196819	0.250051	0.0636104	-0.612318	-0.276188	-0.268142	1.88033	1.5708	0	0	-0.195246	-0.0351673	0.596344	0.159318	1.07013	0	0
155.28	-2.47755	1.33685	0.798274	0.87137	-0.0476372	0.983793	-0.0494543	0.0392313	-0.339197	0.298004	-0.0723604	0	0	0.540067	-0.385842	-0.20882	0.0824612	-0.30737	0	0	0.0118054	0.246187	0.064624	-0.64652	-0.267069	-0.286718	1.89856	1.5708	0	0	-0.19034	-0.0397685	0.60147	0.159248	1.07125	0	0
155.29	-2.48113	1.34155	0.788813	0.874317	-0.0588689	0.982747	-0.0582325	0.0262237	-0.339451	0.30909	-0.0758064	0	0	0.534715	-0.388	-0.211857	0.107003	-0.296073	0	0	0.00585499	0.242095	0.0654619	-0.682785	-0.256158	-0.309553	1.91364	1.5708	0	0	-0.185612	-0.0443707	0.606825	0.158892	1.07309	0	0
155.3	-2.49201	1.3451	0.78799	0.877615	-0.0704538	0.981521	-0.0644111	0.0122355	-0.339781	0.321102	-0.0807679	0	0	0.530534	-0.387639	-0.212494	0.132578	-0.290487	0	0	0.00339363	0.238099	0.0655506	-0.720722	-0.242311	-0.33431	1.9277	1.5708	0	0	-0.181718	-0.0487937	0.61054	0.158535	1.07566	0	0
155.31	-2.54209	1.34394	0.820697	0.881135	-0.081776	0.979457	-0.0906842	-0.00161047	-0.233019	0.222169	-0.0946775	0	0	0.532867	-0.384145	-0.215662	0.15648	-0.293348	0	0	0.0114287	0.232155	0.0716458	-0.761243	-0.229112	-0.359321	1.94048	1.5708	0	0	-0.178666	-0.0518956	0.615944	0.157069	1.08007	0	0
155.32	-2.52334	1.35063	0.793929	0.88459	-0.0941999	0.978791	-0.07103	-0.0172923	-0.33008	0.349904	-0.100401	0	0	0.519872	-0.383087	-0.217238	0.175961	-0.312285	0	0	0.00288645	0.230645	0.0697889	-0.79724	-0.214514	-0.381561	1.95011	1.5708	0	0	-0.174552	-0.0572233	0.620604	0.15848	1.0847	0	0
